<svg xmlns="http://www.w3.org/2000/svg" viewBox="0 0 415.88 459.92"><path d="M445.19,90.38c-5.29-4.86-12.24-8.47-19.64-8.13-7.83.35-13.55,3.3-19.65,8.13l-24.6,19.73A29.07,29.07,0,0,0,379,99.54c-3-7.1-9.77-15-18-16.09-1.78-.24-3.56-.45-5.32-.63a28.51,28.51,0,0,0-5.59-14c-7.84-10.14-24.49-15.19-35.84-7.16Q281,85.14,249,110.26c-9.82.27-19.73,3.27-28.74,7.5a89,89,0,0,0-12.57,7.35A30.05,30.05,0,0,0,206.24,113c6.57-.8,12.53-6.15,13.52-12.75,14.93-.41,14.83-23.79-.38-23.79A10.79,10.79,0,0,0,209,83a15.11,15.11,0,0,0-4.45-.67c-7.61,0-14.91,6.33-15.36,14-7.46-2.85-15.93-2.7-23.12,2q-28.31,18.51-57.23,36c-12.43,7.53-18.19,25.26-10,38a30.93,30.93,0,0,0,4.94,5.85,186.09,186.09,0,0,0-10.91,48.26c-.57,6.12,2.06,12.4,6.09,17.33a290,290,0,0,0-29.34,30.64c-4.81,5.87-8.14,11.78-8.14,19.65,0,6.81,3,14.95,8.14,19.64l1,.85c-2.4,2.91-4.81,5.81-7.19,8.73-5.58,6.86-11.42,13.65-16.48,20.9a53.7,53.7,0,0,0-9.46,28.74c-.44,9.65,5.61,19.22,13.76,24,7.85,4.6,20.31,5.74,28,0q7.14-5.3,14.08-10.82c-2.78,10.52,1.5,22.42,10.1,29.07,11.3,8.73,26,7.13,36.48-2.17,4-3.57,7.81-7.36,11.45-11.29-1.38,10.84,3.7,22.77,13.47,27.93,14,7.41,29.33,2.93,38-10q4-5.93,8.09-11.74a2.09,2.09,0,0,1,.14-.17,24.82,24.82,0,0,0,.91,7.38c1.77,6.44,6.75,13.42,12.76,16.6,14.26,7.53,29.06,2.75,38-10l6.62-9.39.16.15c11.09,10.17,28.32,11,39.29,0a424.3,424.3,0,0,1,36.06-32.27l2.11-1.67q2.44-1.91-2.08,1.6c.74-1.38,3.73-2.83,5-3.78q4.68-3.48,9.45-6.83c6.85-4.81,13.86-9.38,21-13.78,12.25-7.56,18.12-24.87,10.18-37.66q10.5-12.13,21-24.28c9.5-11,11.6-28.64,0-39.29a29.81,29.81,0,0,0-11.3-6.63,120.4,120.4,0,0,0,11-16.41,28.29,28.29,0,0,0,1.69-24q6.3-5.81,12.78-11.42c10.48-9,10.06-26.27,2.18-36.47a28.33,28.33,0,0,0-9.45-7.76q13.11-11.44,26.74-22.3c5.2-4.16,8.14-13.3,8.14-19.64C453.33,103.21,450.3,95.07,445.19,90.38Z" transform="translate(-37.45 -19.32)"/><path d="M263.91,438.5a7.68,7.68,0,0,0-7.67,5.45c-10.33,2.85-9.36,20.44,3,20.44,6.91,0,10.26-5.54,10-10.91C274.29,449.08,272.52,438.5,263.91,438.5Z" transform="translate(-37.45 -19.32)"/><path d="M235,47.1C224.15,47.1,224.13,64,235,64S245.87,47.1,235,47.1Z" transform="translate(-37.45 -19.32)"/><path d="M256.88,19.32c-6.39,0-6.4,9.92,0,9.92S263.27,19.32,256.88,19.32Z" transform="translate(-37.45 -19.32)"/><path d="M267,469.32c-6.38,0-6.39,9.92,0,9.92S273.43,469.32,267,469.32Z" transform="translate(-37.45 -19.32)"/></svg>